<svg width="34" height="34" viewBox="0 0 34 34" fill="none" xmlns="http://www.w3.org/2000/svg">
<path d="M24.7965 0H9.20347C4.12859 0 0 4.12859 0 9.20347V24.7967C0 29.8713 4.12859 33.9999 9.20347 33.9999H24.7967C29.8713 33.9999 33.9999 29.8713 33.9999 24.7967V9.20347C33.9999 4.12859 29.8713 0 24.7965 0V0ZM32.0067 24.7967C32.0067 28.7723 28.7723 32.0067 24.7965 32.0067H9.20347C5.22766 32.0067 1.99322 28.7723 1.99322 24.7967V9.20347C1.99322 5.22766 5.22766 1.99322 9.20347 1.99322H24.7967C28.7723 1.99322 32.0067 5.22766 32.0067 9.20347V24.7967Z" fill="#25313C" fill-opacity="0.51"/>
<path d="M17 7.70337C11.8737 7.70337 7.70337 11.8737 7.70337 17C7.70337 22.1262 11.8737 26.2966 17 26.2966C22.1262 26.2966 26.2966 22.1262 26.2966 17C26.2966 11.8737 22.1262 7.70337 17 7.70337ZM17 24.3033C12.9731 24.3033 9.69659 21.0271 9.69659 17C9.69659 12.9731 12.9731 9.69659 17 9.69659C21.0271 9.69659 24.3033 12.9731 24.3033 17C24.3033 21.0271 21.0271 24.3033 17 24.3033Z" fill="#25313C" fill-opacity="0.51"/>
<path d="M26.5189 4.40186C25.004 4.40186 23.7719 5.63426 23.7719 7.14889C23.7719 8.66378 25.004 9.89618 26.5189 9.89618C28.0338 9.89618 29.2662 8.66378 29.2662 7.14889C29.2662 5.634 28.0338 4.40186 26.5189 4.40186ZM26.5189 7.9027C26.1033 7.9027 25.7651 7.56445 25.7651 7.14889C25.7651 6.73307 26.1033 6.39508 26.5189 6.39508C26.9347 6.39508 27.273 6.73307 27.273 7.14889C27.273 7.56445 26.9347 7.9027 26.5189 7.9027Z" fill="#25313C" fill-opacity="0.51"/>
</svg>
