<svg width="38" height="49" viewBox="0 0 38 49" fill="none" xmlns="http://www.w3.org/2000/svg">
<path d="M34.6602 7.27344H3.33984C1.49454 7.27344 0 8.91937 0 10.9289V32.8616C0 34.8831 1.50553 36.5171 3.33984 36.5171H34.6602C36.49 36.5171 38 34.89 38 32.8616V10.9289C38 8.92294 36.5114 7.27344 34.6602 7.27344ZM34.1924 9.71041C33.5101 10.4533 21.7671 23.2383 21.3616 23.6797C20.7308 24.3702 19.8921 24.7503 19 24.7503C18.1079 24.7503 17.2692 24.3701 16.6363 23.6774C16.3636 23.3805 4.75022 10.7367 3.80757 9.71041H34.1924ZM2.22656 32.3656V11.4264L11.8481 21.9017L2.22656 32.3656ZM3.80898 34.0801L13.4268 23.6204L15.064 25.4029C16.1153 26.5536 17.5132 27.1873 19 27.1873C20.4868 27.1873 21.8847 26.5536 22.934 25.4051L24.5732 23.6204L34.191 34.0801H3.80898ZM35.7734 32.3656L26.1519 21.9017L35.7734 11.4264V32.3656Z" fill="#25313C" fill-opacity="0.48"/>
</svg>
