<svg width="100" height="100" viewBox="0 0 100 100" fill="none" xmlns="http://www.w3.org/2000/svg">
<path d="M4.59843 48.5322H1.46771C0.657143 48.5322 0 49.1894 0 49.9999C0 50.8105 0.657143 51.4676 1.46771 51.4676H4.59843C5.409 51.4676 6.06614 50.8105 6.06614 49.9999C6.06614 49.1894 5.409 48.5322 4.59843 48.5322Z" fill="#DEC8C8"/>
<path d="M89.1385 48.5322H60.7591C60.6994 48.0921 60.6151 47.6596 60.5039 47.2377L82.3822 38.1755C83.1311 37.8653 83.4867 37.0066 83.1765 36.2579C82.8663 35.5089 82.0076 35.1536 81.2589 35.4635L59.3759 44.5277C59.1532 44.1475 58.909 43.7815 58.6431 43.4326L85.3554 16.7203C85.9286 16.1471 85.9286 15.2177 85.3554 14.6448C84.7822 14.0716 83.8528 14.0716 83.2798 14.6448L56.5675 41.3571C56.2186 41.0911 55.8526 40.8469 55.4724 40.6242L64.5366 18.7412C64.8468 17.9923 64.4912 17.1338 63.7423 16.8236C62.9932 16.5134 62.1348 16.8688 61.8247 17.6179L52.7624 39.4962C52.3405 39.3851 51.908 39.3007 51.4679 39.241V10.8614C51.4679 10.0508 50.8108 9.39368 50.0002 9.39368C49.1896 9.39368 48.5325 10.0508 48.5325 10.8614V39.2408C48.0922 39.3005 47.6599 39.3849 47.238 39.496L38.1755 17.6177C37.8654 16.8688 37.0067 16.5132 36.2579 16.8234C35.509 17.1336 35.1534 17.9923 35.4636 18.741L44.5278 40.624C44.1476 40.8467 43.7816 41.0909 43.4327 41.3569L16.7204 14.6446C16.1472 14.0714 15.2178 14.0714 14.6448 14.6446C14.0716 15.2177 14.0716 16.1471 14.6448 16.7201L41.3571 43.4324C41.0912 43.7813 40.847 44.1473 40.6243 44.5275L18.7413 35.4635C17.9926 35.1536 17.1339 35.5089 16.8237 36.2579C16.5135 37.0068 16.8691 37.8653 17.618 38.1755L39.4961 47.2377C39.3851 47.6596 39.3008 48.0921 39.2409 48.5322H10.8614C10.0509 48.5322 9.39374 49.1894 9.39374 49.9999C9.39374 50.8105 10.0509 51.4677 10.8614 51.4677H39.2407C39.3004 51.9078 39.3847 52.3403 39.4959 52.7622L17.6178 61.8244C16.8689 62.1346 16.5133 62.9933 16.8235 63.742C17.0575 64.3072 17.6041 64.6485 18.18 64.6485C18.3673 64.6485 18.5575 64.6125 18.7411 64.5363L40.6241 55.472C40.8468 55.8522 41.091 56.2181 41.3569 56.5671L14.6446 83.2794C14.0714 83.8526 14.0714 84.7819 14.6446 85.3549C14.9311 85.6414 15.3068 85.7849 15.6824 85.7849C16.0579 85.7849 16.4337 85.6416 16.7202 85.3549L43.4325 58.6426C43.7814 58.9086 44.1474 59.1528 44.5276 59.3755L35.4634 81.2585C35.1532 82.0074 35.5088 82.8659 36.2577 83.1761C36.4415 83.2522 36.6317 83.2882 36.8188 83.2882C37.3947 83.2882 37.9413 82.9469 38.1753 82.3817L47.2376 60.5035C47.6595 60.6144 48.0918 60.6988 48.5321 60.7586V89.1381C48.5321 89.9487 49.1892 90.6058 49.9998 90.6058C50.8104 90.6058 51.4675 89.9487 51.4675 89.1381V60.759C51.9078 60.6994 52.3401 60.615 52.762 60.5039L61.8243 82.3821C62.0583 82.9473 62.6049 83.2886 63.1808 83.2886C63.3681 83.2886 63.5583 83.2526 63.7419 83.1765C64.4908 82.8663 64.8464 82.0076 64.5362 81.2589L55.472 59.3759C55.8523 59.1532 56.2182 58.9089 56.5671 58.643L83.2795 85.3553C83.566 85.6418 83.9417 85.7853 84.3172 85.7853C84.6928 85.7853 85.0685 85.642 85.355 85.3553C85.9282 84.7821 85.9282 83.8528 85.355 83.2798L58.6427 56.5675C58.9084 56.2185 59.1526 55.8526 59.3755 55.4723L81.2585 64.5367C81.4421 64.6129 81.6325 64.6489 81.8196 64.6489C82.3955 64.6489 82.9421 64.3076 83.1761 63.7424C83.4863 62.9935 83.1307 62.135 82.3818 61.8248L60.5035 52.7626C60.6145 52.3406 60.6988 51.9082 60.7587 51.468H89.1382C89.9487 51.468 90.6059 50.8109 90.6059 50.0003C90.6059 49.1898 89.9491 48.5322 89.1385 48.5322ZM50 57.9256C45.6297 57.9256 42.0744 54.3702 42.0744 49.9999C42.0744 45.6297 45.6297 42.0743 50 42.0743C54.3703 42.0743 57.9256 45.6297 57.9256 49.9999C57.9256 54.3702 54.3703 57.9256 50 57.9256Z" fill="#DEC8C8"/>
<path d="M98.5323 48.5322H95.4018C94.5912 48.5322 93.9341 49.1894 93.9341 49.9999C93.9341 50.8105 94.5912 51.4676 95.4018 51.4676H98.5323C99.3429 51.4676 100 50.8105 100 49.9999C100 49.1894 99.3429 48.5322 98.5323 48.5322Z" fill="#DEC8C8"/>
<path d="M50 93.9341C49.1894 93.9341 48.5323 94.5912 48.5323 95.4018V98.5323C48.5323 99.3429 49.1894 100 50 100C50.8106 100 51.4677 99.3429 51.4677 98.5323V95.4018C51.4677 94.5912 50.8106 93.9341 50 93.9341Z" fill="#DEC8C8"/>
<path d="M50 6.06595C50.8106 6.06595 51.4677 5.40881 51.4677 4.59824V1.46771C51.4677 0.657143 50.8106 0 50 0C49.1894 0 48.5323 0.657143 48.5323 1.46771V4.59824C48.5323 5.40881 49.1894 6.06595 50 6.06595Z" fill="#DEC8C8"/>
</svg>
