<svg width="38" height="38" viewBox="0 0 38 38" fill="none" xmlns="http://www.w3.org/2000/svg">
<path fill-rule="evenodd" clip-rule="evenodd" d="M31.6016 6.34614C28.2687 3.00934 23.8363 1.1709 19.1142 1.16895C9.38382 1.16895 1.46473 9.08781 1.46082 18.8208C1.45951 21.9321 2.2723 24.9692 3.81719 27.6463L1.31274 36.7939L10.6711 34.3391C13.2496 35.7457 16.1527 36.4869 19.107 36.4878H19.1144C28.8436 36.4878 36.7636 28.5683 36.7673 18.8349C36.7693 14.1178 34.9347 9.68272 31.6016 6.34614ZM19.1142 33.5065H19.1081C16.4753 33.5054 13.8933 32.7979 11.6402 31.4613L11.1046 31.1432L5.55126 32.6L7.03354 27.1856L6.68455 26.6305C5.21575 24.2943 4.44015 21.5942 4.44146 18.8218C4.4445 10.7321 11.0268 4.15045 19.12 4.15045C23.0391 4.15176 26.7232 5.67991 29.4933 8.45333C32.2635 11.2267 33.7882 14.9132 33.7869 18.8338C33.7834 26.9242 27.2016 33.5065 19.1142 33.5065ZM27.1624 22.5174C26.7214 22.2965 24.5527 21.2297 24.1483 21.0823C23.7443 20.9351 23.4499 20.8618 23.1561 21.3032C22.8619 21.7446 22.0167 22.7383 21.7593 23.0325C21.5019 23.3269 21.2448 23.3639 20.8037 23.143C20.3625 22.9223 18.9413 22.4563 17.2564 20.9536C15.9452 19.784 15.06 18.3396 14.8026 17.8982C14.5456 17.4563 14.8004 17.2406 14.9961 16.998C15.4736 16.405 15.9517 15.7834 16.0987 15.4892C16.2459 15.1948 16.1722 14.9371 16.0618 14.7164C15.9517 14.4957 15.0696 12.3246 14.7021 11.4411C14.3438 10.5814 13.9805 10.6975 13.7095 10.684C13.4525 10.6712 13.1583 10.6686 12.8641 10.6686C12.5702 10.6686 12.0922 10.7788 11.6878 11.2207C11.2836 11.6623 10.1442 12.7292 10.1442 14.9004C10.1442 17.0715 11.7248 19.1689 11.9452 19.4633C12.1657 19.7577 15.0557 24.213 19.4803 26.1234C20.5327 26.5783 21.3542 26.8494 21.995 27.0527C23.0518 27.3885 24.013 27.3411 24.7732 27.2276C25.6208 27.1008 27.3827 26.1604 27.7506 25.1301C28.1181 24.0997 28.1181 23.2167 28.0076 23.0325C27.8976 22.8486 27.6034 22.7383 27.1624 22.5174Z" fill="#25313C" fill-opacity="0.5"/>
</svg>
